<mxfile host="app.diagrams.net" modified="2023-06-25T13:48:20.226Z" agent="Mozilla/5.0 (Macintosh; Intel Mac OS X 10_15_7) AppleWebKit/537.36 (KHTML, like Gecko) Chrome/113.0.0.0 Safari/537.36" etag="J1rwObEvzxcsHRbbyhbh" version="21.5.0" type="device">
  <diagram id="qlbjK30JJvwBy1Fe7Gxs" name="Page-1">
    <mxGraphModel dx="3093" dy="916" grid="0" gridSize="10" guides="1" tooltips="1" connect="1" arrows="1" fold="1" page="1" pageScale="1" pageWidth="827" pageHeight="1169" math="0" shadow="0">
      <root>
        <mxCell id="0" />
        <mxCell id="1" parent="0" />
        <mxCell id="SFtEIr7b2_NzB5_jaYux-1" value="" style="rounded=0;whiteSpace=wrap;html=1;fillColor=none;strokeColor=#430098;" parent="1" vertex="1">
          <mxGeometry x="160" y="200" width="560" height="410" as="geometry" />
        </mxCell>
        <mxCell id="SFtEIr7b2_NzB5_jaYux-37" style="edgeStyle=orthogonalEdgeStyle;rounded=0;orthogonalLoop=1;jettySize=auto;html=1;entryX=1;entryY=0.5;entryDx=0;entryDy=0;" parent="1" source="SFtEIr7b2_NzB5_jaYux-2" target="SFtEIr7b2_NzB5_jaYux-11" edge="1">
          <mxGeometry relative="1" as="geometry">
            <Array as="points">
              <mxPoint x="130" y="420" />
              <mxPoint x="130" y="290" />
            </Array>
          </mxGeometry>
        </mxCell>
        <mxCell id="SFtEIr7b2_NzB5_jaYux-38" style="edgeStyle=orthogonalEdgeStyle;rounded=0;orthogonalLoop=1;jettySize=auto;html=1;entryX=1;entryY=0.5;entryDx=0;entryDy=0;" parent="1" source="SFtEIr7b2_NzB5_jaYux-2" target="SFtEIr7b2_NzB5_jaYux-24" edge="1">
          <mxGeometry relative="1" as="geometry">
            <Array as="points">
              <mxPoint x="130" y="420" />
              <mxPoint x="130" y="370" />
            </Array>
          </mxGeometry>
        </mxCell>
        <mxCell id="SFtEIr7b2_NzB5_jaYux-39" style="edgeStyle=orthogonalEdgeStyle;rounded=0;orthogonalLoop=1;jettySize=auto;html=1;entryX=1;entryY=0.5;entryDx=0;entryDy=0;" parent="1" source="SFtEIr7b2_NzB5_jaYux-2" target="SFtEIr7b2_NzB5_jaYux-27" edge="1">
          <mxGeometry relative="1" as="geometry">
            <Array as="points">
              <mxPoint x="130" y="420" />
              <mxPoint x="130" y="450" />
            </Array>
          </mxGeometry>
        </mxCell>
        <mxCell id="SFtEIr7b2_NzB5_jaYux-40" style="edgeStyle=orthogonalEdgeStyle;rounded=0;orthogonalLoop=1;jettySize=auto;html=1;entryX=1;entryY=0.5;entryDx=0;entryDy=0;startArrow=block;startFill=1;" parent="1" source="SFtEIr7b2_NzB5_jaYux-2" target="SFtEIr7b2_NzB5_jaYux-30" edge="1">
          <mxGeometry relative="1" as="geometry">
            <Array as="points">
              <mxPoint x="130" y="420" />
              <mxPoint x="130" y="520" />
            </Array>
          </mxGeometry>
        </mxCell>
        <mxCell id="SFtEIr7b2_NzB5_jaYux-61" style="edgeStyle=orthogonalEdgeStyle;rounded=0;orthogonalLoop=1;jettySize=auto;html=1;" parent="1" source="SFtEIr7b2_NzB5_jaYux-2" target="SFtEIr7b2_NzB5_jaYux-4" edge="1">
          <mxGeometry relative="1" as="geometry" />
        </mxCell>
        <mxCell id="SFtEIr7b2_NzB5_jaYux-62" style="edgeStyle=orthogonalEdgeStyle;rounded=0;orthogonalLoop=1;jettySize=auto;html=1;entryX=0.25;entryY=0;entryDx=0;entryDy=0;" parent="1" source="SFtEIr7b2_NzB5_jaYux-2" target="SFtEIr7b2_NzB5_jaYux-6" edge="1">
          <mxGeometry relative="1" as="geometry" />
        </mxCell>
        <mxCell id="SFtEIr7b2_NzB5_jaYux-3" value="Heroku Scheduler" style="rounded=0;whiteSpace=wrap;html=1;" parent="1" vertex="1">
          <mxGeometry x="593" y="255" width="120" height="60" as="geometry" />
        </mxCell>
        <mxCell id="SFtEIr7b2_NzB5_jaYux-5" value="LogEntries" style="rounded=0;whiteSpace=wrap;html=1;" parent="1" vertex="1">
          <mxGeometry x="453" y="255" width="120" height="60" as="geometry" />
        </mxCell>
        <mxCell id="SFtEIr7b2_NzB5_jaYux-63" style="edgeStyle=orthogonalEdgeStyle;rounded=0;orthogonalLoop=1;jettySize=auto;html=1;" parent="1" source="SFtEIr7b2_NzB5_jaYux-6" target="SFtEIr7b2_NzB5_jaYux-56" edge="1">
          <mxGeometry relative="1" as="geometry">
            <Array as="points">
              <mxPoint x="587" y="91" />
            </Array>
          </mxGeometry>
        </mxCell>
        <mxCell id="SFtEIr7b2_NzB5_jaYux-6" value="Mailgun" style="rounded=0;whiteSpace=wrap;html=1;" parent="1" vertex="1">
          <mxGeometry x="543" y="498" width="120" height="60" as="geometry" />
        </mxCell>
        <mxCell id="SFtEIr7b2_NzB5_jaYux-7" value="New Relic APM" style="rounded=0;whiteSpace=wrap;html=1;" parent="1" vertex="1">
          <mxGeometry x="173" y="255" width="120" height="60" as="geometry" />
        </mxCell>
        <mxCell id="SFtEIr7b2_NzB5_jaYux-8" value="Redis To Go" style="rounded=0;whiteSpace=wrap;html=1;" parent="1" vertex="1">
          <mxGeometry x="213" y="498" width="120" height="60" as="geometry" />
        </mxCell>
        <mxCell id="SFtEIr7b2_NzB5_jaYux-9" value="" style="rounded=0;whiteSpace=wrap;html=1;" parent="1" vertex="1">
          <mxGeometry x="313" y="255" width="120" height="60" as="geometry" />
        </mxCell>
        <mxCell id="SFtEIr7b2_NzB5_jaYux-17" value="" style="shape=image;verticalLabelPosition=bottom;labelBackgroundColor=#ffffff;verticalAlign=top;aspect=fixed;imageAspect=0;image=https://brand.heroku.com/static/media/heroku-logotype-horizontal.81c49462.svg;" parent="1" vertex="1">
          <mxGeometry x="170" y="210" width="100.5" height="30" as="geometry" />
        </mxCell>
        <mxCell id="SFtEIr7b2_NzB5_jaYux-18" value="AWS Cloud" style="points=[[0,0],[0.25,0],[0.5,0],[0.75,0],[1,0],[1,0.25],[1,0.5],[1,0.75],[1,1],[0.75,1],[0.5,1],[0.25,1],[0,1],[0,0.75],[0,0.5],[0,0.25]];outlineConnect=0;gradientColor=none;html=1;whiteSpace=wrap;fontSize=12;fontStyle=0;container=1;pointerEvents=0;collapsible=0;recursiveResize=0;shape=mxgraph.aws4.group;grIcon=mxgraph.aws4.group_aws_cloud_alt;strokeColor=#232F3E;fillColor=none;verticalAlign=top;align=left;spacingLeft=30;fontColor=#232F3E;dashed=0;" parent="1" vertex="1">
          <mxGeometry x="-79" y="198" width="190" height="417" as="geometry" />
        </mxCell>
        <mxCell id="SFtEIr7b2_NzB5_jaYux-32" value="" style="group" parent="SFtEIr7b2_NzB5_jaYux-18" vertex="1" connectable="0">
          <mxGeometry x="40" y="62" width="120" height="290" as="geometry" />
        </mxCell>
        <mxCell id="SFtEIr7b2_NzB5_jaYux-22" value="" style="group" parent="SFtEIr7b2_NzB5_jaYux-32" vertex="1" connectable="0">
          <mxGeometry width="120" height="60" as="geometry" />
        </mxCell>
        <mxCell id="SFtEIr7b2_NzB5_jaYux-11" value="AWS Bucket&lt;br&gt;AI Pics" style="rounded=0;whiteSpace=wrap;html=1;spacingLeft=30;" parent="SFtEIr7b2_NzB5_jaYux-22" vertex="1">
          <mxGeometry width="120" height="60" as="geometry" />
        </mxCell>
        <mxCell id="SFtEIr7b2_NzB5_jaYux-19" value="" style="sketch=0;outlineConnect=0;fontColor=#232F3E;gradientColor=none;fillColor=#3F8624;strokeColor=none;dashed=0;verticalLabelPosition=bottom;verticalAlign=top;align=center;html=1;fontSize=12;fontStyle=0;aspect=fixed;pointerEvents=1;shape=mxgraph.aws4.bucket;" parent="SFtEIr7b2_NzB5_jaYux-22" vertex="1">
          <mxGeometry x="10" y="15" width="28.85" height="30" as="geometry" />
        </mxCell>
        <mxCell id="SFtEIr7b2_NzB5_jaYux-23" value="" style="group" parent="SFtEIr7b2_NzB5_jaYux-32" vertex="1" connectable="0">
          <mxGeometry y="80" width="120" height="60" as="geometry" />
        </mxCell>
        <mxCell id="SFtEIr7b2_NzB5_jaYux-24" value="AWS Bucket&lt;br&gt;Backend" style="rounded=0;whiteSpace=wrap;html=1;spacingLeft=30;" parent="SFtEIr7b2_NzB5_jaYux-23" vertex="1">
          <mxGeometry width="120" height="60" as="geometry" />
        </mxCell>
        <mxCell id="SFtEIr7b2_NzB5_jaYux-25" value="" style="sketch=0;outlineConnect=0;fontColor=#232F3E;gradientColor=none;fillColor=#3F8624;strokeColor=none;dashed=0;verticalLabelPosition=bottom;verticalAlign=top;align=center;html=1;fontSize=12;fontStyle=0;aspect=fixed;pointerEvents=1;shape=mxgraph.aws4.bucket;" parent="SFtEIr7b2_NzB5_jaYux-23" vertex="1">
          <mxGeometry x="10" y="15" width="28.85" height="30" as="geometry" />
        </mxCell>
        <mxCell id="SFtEIr7b2_NzB5_jaYux-26" value="" style="group" parent="SFtEIr7b2_NzB5_jaYux-32" vertex="1" connectable="0">
          <mxGeometry y="160" width="120" height="60" as="geometry" />
        </mxCell>
        <mxCell id="SFtEIr7b2_NzB5_jaYux-27" value="AWS Bucket&lt;br&gt;Public" style="rounded=0;whiteSpace=wrap;html=1;spacingLeft=30;" parent="SFtEIr7b2_NzB5_jaYux-26" vertex="1">
          <mxGeometry width="120" height="60" as="geometry" />
        </mxCell>
        <mxCell id="SFtEIr7b2_NzB5_jaYux-28" value="" style="sketch=0;outlineConnect=0;fontColor=#232F3E;gradientColor=none;fillColor=#3F8624;strokeColor=none;dashed=0;verticalLabelPosition=bottom;verticalAlign=top;align=center;html=1;fontSize=12;fontStyle=0;aspect=fixed;pointerEvents=1;shape=mxgraph.aws4.bucket;" parent="SFtEIr7b2_NzB5_jaYux-26" vertex="1">
          <mxGeometry x="10" y="15" width="28.85" height="30" as="geometry" />
        </mxCell>
        <mxCell id="SFtEIr7b2_NzB5_jaYux-29" value="" style="group" parent="SFtEIr7b2_NzB5_jaYux-32" vertex="1" connectable="0">
          <mxGeometry y="230" width="120" height="60" as="geometry" />
        </mxCell>
        <mxCell id="SFtEIr7b2_NzB5_jaYux-30" value="AWS Bucket&lt;br&gt;Web" style="rounded=0;whiteSpace=wrap;html=1;spacingLeft=30;" parent="SFtEIr7b2_NzB5_jaYux-29" vertex="1">
          <mxGeometry width="120" height="60" as="geometry" />
        </mxCell>
        <mxCell id="SFtEIr7b2_NzB5_jaYux-31" value="" style="sketch=0;outlineConnect=0;fontColor=#232F3E;gradientColor=none;fillColor=#3F8624;strokeColor=none;dashed=0;verticalLabelPosition=bottom;verticalAlign=top;align=center;html=1;fontSize=12;fontStyle=0;aspect=fixed;pointerEvents=1;shape=mxgraph.aws4.bucket;" parent="SFtEIr7b2_NzB5_jaYux-29" vertex="1">
          <mxGeometry x="10" y="15" width="28.85" height="30" as="geometry" />
        </mxCell>
        <mxCell id="SFtEIr7b2_NzB5_jaYux-41" value="" style="rounded=0;whiteSpace=wrap;html=1;strokeColor=#000000;fillColor=none;" parent="1" vertex="1">
          <mxGeometry x="-79" y="632" width="202" height="172" as="geometry" />
        </mxCell>
        <mxCell id="SFtEIr7b2_NzB5_jaYux-42" value="" style="rounded=0;whiteSpace=wrap;html=1;strokeColor=default;fillColor=none;" parent="1" vertex="1">
          <mxGeometry x="163" y="632" width="338" height="174" as="geometry" />
        </mxCell>
        <mxCell id="SFtEIr7b2_NzB5_jaYux-43" value="" style="shape=image;verticalLabelPosition=bottom;labelBackgroundColor=#ffffff;verticalAlign=top;aspect=fixed;imageAspect=0;image=https://github.githubassets.com/images/modules/logos_page/GitHub-Mark.png;" parent="1" vertex="1">
          <mxGeometry x="-76" y="635" width="44" height="44" as="geometry" />
        </mxCell>
        <mxCell id="SFtEIr7b2_NzB5_jaYux-45" value="Github Action Pola Web" style="text;html=1;strokeColor=none;fillColor=none;align=left;verticalAlign=middle;whiteSpace=wrap;rounded=0;" parent="1" vertex="1">
          <mxGeometry x="-30" y="639" width="148" height="30" as="geometry" />
        </mxCell>
        <mxCell id="SFtEIr7b2_NzB5_jaYux-55" style="edgeStyle=orthogonalEdgeStyle;rounded=0;orthogonalLoop=1;jettySize=auto;html=1;entryX=0;entryY=0.5;entryDx=0;entryDy=0;" parent="1" source="SFtEIr7b2_NzB5_jaYux-46" target="SFtEIr7b2_NzB5_jaYux-30" edge="1">
          <mxGeometry relative="1" as="geometry">
            <Array as="points">
              <mxPoint x="-119" y="734" />
              <mxPoint x="-119" y="520" />
            </Array>
          </mxGeometry>
        </mxCell>
        <mxCell id="SFtEIr7b2_NzB5_jaYux-46" value="Workflow CI/CD" style="rounded=0;whiteSpace=wrap;html=1;strokeColor=#000000;fillColor=none;" parent="1" vertex="1">
          <mxGeometry x="-38" y="704" width="120" height="60" as="geometry" />
        </mxCell>
        <mxCell id="SFtEIr7b2_NzB5_jaYux-48" value="" style="shape=image;verticalLabelPosition=bottom;labelBackgroundColor=#ffffff;verticalAlign=top;aspect=fixed;imageAspect=0;image=https://github.githubassets.com/images/modules/logos_page/GitHub-Mark.png;" parent="1" vertex="1">
          <mxGeometry x="166" y="635" width="44" height="44" as="geometry" />
        </mxCell>
        <mxCell id="SFtEIr7b2_NzB5_jaYux-49" value="Github Action Pola Backend" style="text;html=1;strokeColor=none;fillColor=none;align=left;verticalAlign=middle;whiteSpace=wrap;rounded=0;" parent="1" vertex="1">
          <mxGeometry x="223" y="639" width="241" height="30" as="geometry" />
        </mxCell>
        <mxCell id="SFtEIr7b2_NzB5_jaYux-64" style="edgeStyle=orthogonalEdgeStyle;rounded=0;orthogonalLoop=1;jettySize=auto;html=1;entryX=0;entryY=0.75;entryDx=0;entryDy=0;" parent="1" source="SFtEIr7b2_NzB5_jaYux-53" target="SFtEIr7b2_NzB5_jaYux-2" edge="1">
          <mxGeometry relative="1" as="geometry">
            <Array as="points">
              <mxPoint x="270" y="682" />
              <mxPoint x="357" y="682" />
              <mxPoint x="357" y="436" />
            </Array>
          </mxGeometry>
        </mxCell>
        <mxCell id="SFtEIr7b2_NzB5_jaYux-53" value="Workflow CI/CD" style="rounded=0;whiteSpace=wrap;html=1;strokeColor=#000000;fillColor=none;" parent="1" vertex="1">
          <mxGeometry x="210" y="701" width="120" height="60" as="geometry" />
        </mxCell>
        <mxCell id="SFtEIr7b2_NzB5_jaYux-60" style="edgeStyle=orthogonalEdgeStyle;rounded=0;orthogonalLoop=1;jettySize=auto;html=1;" parent="1" source="SFtEIr7b2_NzB5_jaYux-54" target="SFtEIr7b2_NzB5_jaYux-4" edge="1">
          <mxGeometry relative="1" as="geometry">
            <Array as="points">
              <mxPoint x="411" y="680" />
              <mxPoint x="443" y="680" />
            </Array>
          </mxGeometry>
        </mxCell>
        <mxCell id="SFtEIr7b2_NzB5_jaYux-54" value="Workflow BI Refresh" style="rounded=0;whiteSpace=wrap;html=1;strokeColor=#000000;fillColor=none;" parent="1" vertex="1">
          <mxGeometry x="351" y="699" width="120" height="60" as="geometry" />
        </mxCell>
        <mxCell id="SFtEIr7b2_NzB5_jaYux-58" style="edgeStyle=orthogonalEdgeStyle;rounded=0;orthogonalLoop=1;jettySize=auto;html=1;entryX=0.5;entryY=0;entryDx=0;entryDy=0;" parent="1" source="SFtEIr7b2_NzB5_jaYux-56" target="SFtEIr7b2_NzB5_jaYux-2" edge="1">
          <mxGeometry relative="1" as="geometry">
            <Array as="points">
              <mxPoint x="443" y="127" />
            </Array>
          </mxGeometry>
        </mxCell>
        <mxCell id="SFtEIr7b2_NzB5_jaYux-56" value="Użytkownik" style="shape=umlActor;verticalLabelPosition=bottom;verticalAlign=top;html=1;strokeColor=#000000;fillColor=none;" parent="1" vertex="1">
          <mxGeometry x="263" y="78" width="30" height="60" as="geometry" />
        </mxCell>
        <mxCell id="hWMDdhYHitPVyJJwHZ2V-8" style="edgeStyle=orthogonalEdgeStyle;rounded=0;orthogonalLoop=1;jettySize=auto;html=1;entryX=0.75;entryY=1;entryDx=0;entryDy=0;" edge="1" parent="1" source="SFtEIr7b2_NzB5_jaYux-75" target="SFtEIr7b2_NzB5_jaYux-4">
          <mxGeometry relative="1" as="geometry">
            <Array as="points">
              <mxPoint x="603" y="623" />
              <mxPoint x="473" y="623" />
            </Array>
          </mxGeometry>
        </mxCell>
        <mxCell id="SFtEIr7b2_NzB5_jaYux-83" style="edgeStyle=orthogonalEdgeStyle;rounded=0;orthogonalLoop=1;jettySize=auto;html=1;startArrow=none;startFill=0;endArrow=classic;endFill=1;" parent="1" source="SFtEIr7b2_NzB5_jaYux-82" target="SFtEIr7b2_NzB5_jaYux-75" edge="1">
          <mxGeometry relative="1" as="geometry" />
        </mxCell>
        <mxCell id="SFtEIr7b2_NzB5_jaYux-82" value="Użytkownik" style="shape=umlActor;verticalLabelPosition=bottom;verticalAlign=top;html=1;outlineConnect=0;strokeColor=#000000;fillColor=none;" parent="1" vertex="1">
          <mxGeometry x="582" y="851" width="30" height="60" as="geometry" />
        </mxCell>
        <mxCell id="SFtEIr7b2_NzB5_jaYux-85" style="edgeStyle=orthogonalEdgeStyle;rounded=0;orthogonalLoop=1;jettySize=auto;html=1;entryX=0.5;entryY=1;entryDx=0;entryDy=0;startArrow=none;startFill=0;endArrow=classic;endFill=1;" parent="1" source="SFtEIr7b2_NzB5_jaYux-84" target="SFtEIr7b2_NzB5_jaYux-54" edge="1">
          <mxGeometry relative="1" as="geometry" />
        </mxCell>
        <mxCell id="SFtEIr7b2_NzB5_jaYux-84" value="" style="sketch=0;pointerEvents=1;shadow=0;dashed=0;html=1;strokeColor=none;fillColor=#505050;labelPosition=center;verticalLabelPosition=bottom;verticalAlign=top;outlineConnect=0;align=center;shape=mxgraph.office.concepts.clock;" parent="1" vertex="1">
          <mxGeometry x="388.5" y="889" width="45" height="45" as="geometry" />
        </mxCell>
        <mxCell id="hWMDdhYHitPVyJJwHZ2V-10" value="" style="group" vertex="1" connectable="0" parent="1">
          <mxGeometry x="383" y="498" width="120" height="60" as="geometry" />
        </mxCell>
        <mxCell id="SFtEIr7b2_NzB5_jaYux-4" value="" style="rounded=0;whiteSpace=wrap;html=1;" parent="hWMDdhYHitPVyJJwHZ2V-10" vertex="1">
          <mxGeometry width="120" height="60" as="geometry" />
        </mxCell>
        <mxCell id="hWMDdhYHitPVyJJwHZ2V-1" value="" style="shape=image;verticalLabelPosition=bottom;labelBackgroundColor=default;verticalAlign=top;aspect=fixed;imageAspect=0;image=https://upload.wikimedia.org/wikipedia/commons/thumb/2/29/Postgresql_elephant.svg/993px-Postgresql_elephant.svg.png;" vertex="1" parent="hWMDdhYHitPVyJJwHZ2V-10">
          <mxGeometry x="14.430000000000007" y="17" width="27.15" height="28" as="geometry" />
        </mxCell>
        <mxCell id="hWMDdhYHitPVyJJwHZ2V-2" value="&lt;meta charset=&quot;utf-8&quot;&gt;&lt;span style=&quot;color: rgb(0, 0, 0); font-family: Helvetica; font-size: 12px; font-style: normal; font-variant-ligatures: normal; font-variant-caps: normal; font-weight: 400; letter-spacing: normal; orphans: 2; text-align: center; text-indent: 0px; text-transform: none; widows: 2; word-spacing: 0px; -webkit-text-stroke-width: 0px; background-color: rgb(251, 251, 251); text-decoration-thickness: initial; text-decoration-style: initial; text-decoration-color: initial; float: none; display: inline !important;&quot;&gt;Heroku Postgres&lt;/span&gt;" style="text;html=1;strokeColor=none;fillColor=none;align=center;verticalAlign=middle;whiteSpace=wrap;rounded=0;" vertex="1" parent="hWMDdhYHitPVyJJwHZ2V-10">
          <mxGeometry x="50" y="15" width="60" height="30" as="geometry" />
        </mxCell>
        <mxCell id="hWMDdhYHitPVyJJwHZ2V-11" value="" style="group" vertex="1" connectable="0" parent="1">
          <mxGeometry x="537" y="701" width="120" height="60" as="geometry" />
        </mxCell>
        <mxCell id="SFtEIr7b2_NzB5_jaYux-75" value="Preset" style="rounded=0;whiteSpace=wrap;html=1;strokeColor=#030008;fillColor=none;spacingLeft=30;" parent="hWMDdhYHitPVyJJwHZ2V-11" vertex="1">
          <mxGeometry width="120" height="60" as="geometry" />
        </mxCell>
        <mxCell id="hWMDdhYHitPVyJJwHZ2V-7" value="" style="shape=image;imageAspect=0;aspect=fixed;verticalLabelPosition=bottom;verticalAlign=top;image=https://avatars.githubusercontent.com/u/42724554;" vertex="1" parent="hWMDdhYHitPVyJJwHZ2V-11">
          <mxGeometry x="10" y="10" width="40" height="40" as="geometry" />
        </mxCell>
        <mxCell id="hWMDdhYHitPVyJJwHZ2V-13" value="" style="group" vertex="1" connectable="0" parent="1">
          <mxGeometry x="383" y="391" width="120" height="60" as="geometry" />
        </mxCell>
        <mxCell id="hWMDdhYHitPVyJJwHZ2V-16" value="" style="group" vertex="1" connectable="0" parent="hWMDdhYHitPVyJJwHZ2V-13">
          <mxGeometry width="120" height="60" as="geometry" />
        </mxCell>
        <mxCell id="SFtEIr7b2_NzB5_jaYux-2" value="" style="rounded=0;whiteSpace=wrap;html=1;" parent="hWMDdhYHitPVyJJwHZ2V-16" vertex="1">
          <mxGeometry width="120" height="60" as="geometry" />
        </mxCell>
        <mxCell id="hWMDdhYHitPVyJJwHZ2V-9" value="" style="shape=image;imageAspect=0;aspect=fixed;verticalLabelPosition=bottom;verticalAlign=top;image=https://seeklogo.com/images/H/heroku-logo-90FDE34A7D-seeklogo.com.png;" vertex="1" parent="hWMDdhYHitPVyJJwHZ2V-16">
          <mxGeometry x="15" y="11.25" width="37.5" height="37.5" as="geometry" />
        </mxCell>
        <mxCell id="hWMDdhYHitPVyJJwHZ2V-12" value="Heroku Dyno" style="text;html=1;strokeColor=none;fillColor=none;align=center;verticalAlign=middle;whiteSpace=wrap;rounded=0;" vertex="1" parent="hWMDdhYHitPVyJJwHZ2V-16">
          <mxGeometry x="58" y="3.5" width="60" height="53" as="geometry" />
        </mxCell>
        <mxCell id="hWMDdhYHitPVyJJwHZ2V-14" value="" style="shape=image;imageAspect=0;aspect=fixed;verticalLabelPosition=bottom;verticalAlign=top;image=https://cdn.icon-icons.com/icons2/2389/PNG/512/sentry_logo_icon_144898.png;" vertex="1" parent="1">
          <mxGeometry x="325" y="266.5" width="31.5" height="31.5" as="geometry" />
        </mxCell>
        <mxCell id="hWMDdhYHitPVyJJwHZ2V-17" value="Sentry" style="text;html=1;strokeColor=none;fillColor=none;align=center;verticalAlign=middle;whiteSpace=wrap;rounded=0;" vertex="1" parent="1">
          <mxGeometry x="363" y="270" width="60" height="30" as="geometry" />
        </mxCell>
      </root>
    </mxGraphModel>
  </diagram>
</mxfile>
